<mxfile host="app.diagrams.net" agent="Mozilla/5.0 (X11; Linux x86_64) AppleWebKit/537.36 (KHTML, like Gecko) Chrome/133.0.0.0 Safari/537.36 OPR/118.0.0.0" version="26.2.13">
  <diagram name="ページ1" id="cwWWdA-kx0smR2thaBZO">
    <mxGraphModel dx="1426" dy="724" grid="1" gridSize="10" guides="1" tooltips="1" connect="1" arrows="1" fold="1" page="1" pageScale="1" pageWidth="827" pageHeight="1169" math="0" shadow="0">
      <root>
        <mxCell id="0" />
        <mxCell id="1" parent="0" />
        <mxCell id="IbTH0HofQbz3VUB2zS8t-15" value="" style="group" parent="1" vertex="1" connectable="0">
          <mxGeometry x="480" y="1000" width="240" height="120" as="geometry" />
        </mxCell>
        <mxCell id="IbTH0HofQbz3VUB2zS8t-11" value="" style="rounded=0;whiteSpace=wrap;html=1;" parent="IbTH0HofQbz3VUB2zS8t-15" vertex="1">
          <mxGeometry width="240" height="120" as="geometry" />
        </mxCell>
        <mxCell id="IbTH0HofQbz3VUB2zS8t-12" value="出荷(E)" style="rounded=0;whiteSpace=wrap;html=1;" parent="IbTH0HofQbz3VUB2zS8t-15" vertex="1">
          <mxGeometry width="240" height="30" as="geometry" />
        </mxCell>
        <mxCell id="IbTH0HofQbz3VUB2zS8t-13" value="出荷番号&lt;div&gt;顧客番号(R)&lt;/div&gt;&lt;div&gt;商品番号(R)&lt;/div&gt;" style="rounded=0;whiteSpace=wrap;html=1;" parent="IbTH0HofQbz3VUB2zS8t-15" vertex="1">
          <mxGeometry y="30" width="120" height="90" as="geometry" />
        </mxCell>
        <mxCell id="IbTH0HofQbz3VUB2zS8t-14" value="出荷日&lt;div&gt;出荷数&lt;/div&gt;" style="rounded=0;whiteSpace=wrap;html=1;" parent="IbTH0HofQbz3VUB2zS8t-15" vertex="1">
          <mxGeometry x="120" y="30" width="120" height="90" as="geometry" />
        </mxCell>
        <mxCell id="IbTH0HofQbz3VUB2zS8t-16" value="" style="group" parent="1" vertex="1" connectable="0">
          <mxGeometry x="480" y="840" width="240" height="120" as="geometry" />
        </mxCell>
        <mxCell id="IbTH0HofQbz3VUB2zS8t-17" value="" style="rounded=0;whiteSpace=wrap;html=1;" parent="IbTH0HofQbz3VUB2zS8t-16" vertex="1">
          <mxGeometry width="240" height="120" as="geometry" />
        </mxCell>
        <mxCell id="IbTH0HofQbz3VUB2zS8t-18" value="顧客(R)" style="rounded=0;whiteSpace=wrap;html=1;" parent="IbTH0HofQbz3VUB2zS8t-16" vertex="1">
          <mxGeometry width="240" height="30" as="geometry" />
        </mxCell>
        <mxCell id="IbTH0HofQbz3VUB2zS8t-19" value="顧客番号" style="rounded=0;whiteSpace=wrap;html=1;" parent="IbTH0HofQbz3VUB2zS8t-16" vertex="1">
          <mxGeometry y="30" width="120" height="90" as="geometry" />
        </mxCell>
        <mxCell id="IbTH0HofQbz3VUB2zS8t-20" value="顧客名称&lt;div&gt;顧客住所&lt;/div&gt;&lt;div&gt;顧客電話番号&lt;/div&gt;" style="rounded=0;whiteSpace=wrap;html=1;" parent="IbTH0HofQbz3VUB2zS8t-16" vertex="1">
          <mxGeometry x="120" y="30" width="120" height="90" as="geometry" />
        </mxCell>
        <mxCell id="IbTH0HofQbz3VUB2zS8t-21" value="" style="group" parent="1" vertex="1" connectable="0">
          <mxGeometry x="480" y="1160" width="240" height="120" as="geometry" />
        </mxCell>
        <mxCell id="IbTH0HofQbz3VUB2zS8t-22" value="" style="rounded=0;whiteSpace=wrap;html=1;" parent="IbTH0HofQbz3VUB2zS8t-21" vertex="1">
          <mxGeometry width="240" height="120" as="geometry" />
        </mxCell>
        <mxCell id="IbTH0HofQbz3VUB2zS8t-23" value="商品(R)" style="rounded=0;whiteSpace=wrap;html=1;" parent="IbTH0HofQbz3VUB2zS8t-21" vertex="1">
          <mxGeometry width="240" height="30" as="geometry" />
        </mxCell>
        <mxCell id="IbTH0HofQbz3VUB2zS8t-24" value="商品番号" style="rounded=0;whiteSpace=wrap;html=1;" parent="IbTH0HofQbz3VUB2zS8t-21" vertex="1">
          <mxGeometry y="30" width="120" height="90" as="geometry" />
        </mxCell>
        <mxCell id="IbTH0HofQbz3VUB2zS8t-25" value="商品名称&lt;div&gt;商品単価&lt;/div&gt;" style="rounded=0;whiteSpace=wrap;html=1;" parent="IbTH0HofQbz3VUB2zS8t-21" vertex="1">
          <mxGeometry x="120" y="30" width="120" height="90" as="geometry" />
        </mxCell>
        <mxCell id="9-JHhwB_MmcURfHt1Rso-1" value="" style="group" vertex="1" connectable="0" parent="1">
          <mxGeometry x="160" y="40" width="240" height="170" as="geometry" />
        </mxCell>
        <mxCell id="9-JHhwB_MmcURfHt1Rso-2" value="" style="rounded=0;whiteSpace=wrap;html=1;" vertex="1" parent="9-JHhwB_MmcURfHt1Rso-1">
          <mxGeometry width="240" height="120" as="geometry" />
        </mxCell>
        <mxCell id="9-JHhwB_MmcURfHt1Rso-3" value="受注入力画面" style="rounded=0;whiteSpace=wrap;html=1;" vertex="1" parent="9-JHhwB_MmcURfHt1Rso-1">
          <mxGeometry width="240" height="30" as="geometry" />
        </mxCell>
        <mxCell id="9-JHhwB_MmcURfHt1Rso-4" value="受注番号&lt;div&gt;顧客番号&lt;/div&gt;&lt;div&gt;商品番号&lt;/div&gt;" style="rounded=0;whiteSpace=wrap;html=1;" vertex="1" parent="9-JHhwB_MmcURfHt1Rso-1">
          <mxGeometry y="30" width="120" height="130" as="geometry" />
        </mxCell>
        <mxCell id="9-JHhwB_MmcURfHt1Rso-5" value="受注日&lt;div&gt;顧客名称&lt;/div&gt;&lt;div&gt;顧客住所&lt;/div&gt;&lt;div&gt;顧客電話番号&lt;/div&gt;&lt;div&gt;商品名称&lt;/div&gt;&lt;div&gt;商品単価&lt;/div&gt;&lt;div&gt;受注数&lt;/div&gt;" style="rounded=0;whiteSpace=wrap;html=1;" vertex="1" parent="9-JHhwB_MmcURfHt1Rso-1">
          <mxGeometry x="120" y="30" width="120" height="130" as="geometry" />
        </mxCell>
        <mxCell id="9-JHhwB_MmcURfHt1Rso-6" value="" style="group" vertex="1" connectable="0" parent="1">
          <mxGeometry x="480" y="40" width="240" height="170" as="geometry" />
        </mxCell>
        <mxCell id="9-JHhwB_MmcURfHt1Rso-7" value="" style="rounded=0;whiteSpace=wrap;html=1;" vertex="1" parent="9-JHhwB_MmcURfHt1Rso-6">
          <mxGeometry width="240" height="120" as="geometry" />
        </mxCell>
        <mxCell id="9-JHhwB_MmcURfHt1Rso-8" value="請求照会画面" style="rounded=0;whiteSpace=wrap;html=1;" vertex="1" parent="9-JHhwB_MmcURfHt1Rso-6">
          <mxGeometry width="240" height="30" as="geometry" />
        </mxCell>
        <mxCell id="9-JHhwB_MmcURfHt1Rso-9" value="請求書番号&lt;div&gt;顧客番号&lt;/div&gt;&lt;div&gt;受注番号&lt;/div&gt;" style="rounded=0;whiteSpace=wrap;html=1;" vertex="1" parent="9-JHhwB_MmcURfHt1Rso-6">
          <mxGeometry y="30" width="120" height="130" as="geometry" />
        </mxCell>
        <mxCell id="9-JHhwB_MmcURfHt1Rso-10" value="請求日&lt;div&gt;顧客名称&lt;/div&gt;&lt;div&gt;顧客住所&lt;/div&gt;&lt;div&gt;顧客電話番号&lt;/div&gt;&lt;div&gt;請求金額(D)&lt;/div&gt;" style="rounded=0;whiteSpace=wrap;html=1;" vertex="1" parent="9-JHhwB_MmcURfHt1Rso-6">
          <mxGeometry x="120" y="30" width="120" height="130" as="geometry" />
        </mxCell>
        <mxCell id="9-JHhwB_MmcURfHt1Rso-11" value="" style="group" vertex="1" connectable="0" parent="1">
          <mxGeometry x="160" y="480" width="240" height="120" as="geometry" />
        </mxCell>
        <mxCell id="9-JHhwB_MmcURfHt1Rso-12" value="" style="rounded=0;whiteSpace=wrap;html=1;" vertex="1" parent="9-JHhwB_MmcURfHt1Rso-11">
          <mxGeometry width="240" height="120" as="geometry" />
        </mxCell>
        <mxCell id="9-JHhwB_MmcURfHt1Rso-13" value="受注(E)" style="rounded=0;whiteSpace=wrap;html=1;" vertex="1" parent="9-JHhwB_MmcURfHt1Rso-11">
          <mxGeometry width="240" height="30" as="geometry" />
        </mxCell>
        <mxCell id="9-JHhwB_MmcURfHt1Rso-14" value="受注番号&lt;div&gt;顧客番号(R)&lt;/div&gt;&lt;div&gt;商品番号(R)&lt;/div&gt;" style="rounded=0;whiteSpace=wrap;html=1;" vertex="1" parent="9-JHhwB_MmcURfHt1Rso-11">
          <mxGeometry y="30" width="120" height="90" as="geometry" />
        </mxCell>
        <mxCell id="9-JHhwB_MmcURfHt1Rso-15" value="受注日&lt;div&gt;受注数&lt;/div&gt;" style="rounded=0;whiteSpace=wrap;html=1;" vertex="1" parent="9-JHhwB_MmcURfHt1Rso-11">
          <mxGeometry x="120" y="30" width="120" height="90" as="geometry" />
        </mxCell>
        <mxCell id="9-JHhwB_MmcURfHt1Rso-16" value="" style="group" vertex="1" connectable="0" parent="1">
          <mxGeometry x="40" y="240" width="240" height="120" as="geometry" />
        </mxCell>
        <mxCell id="9-JHhwB_MmcURfHt1Rso-17" value="" style="rounded=0;whiteSpace=wrap;html=1;" vertex="1" parent="9-JHhwB_MmcURfHt1Rso-16">
          <mxGeometry width="240" height="120" as="geometry" />
        </mxCell>
        <mxCell id="9-JHhwB_MmcURfHt1Rso-18" value="商品(R)" style="rounded=0;whiteSpace=wrap;html=1;" vertex="1" parent="9-JHhwB_MmcURfHt1Rso-16">
          <mxGeometry width="240" height="30" as="geometry" />
        </mxCell>
        <mxCell id="9-JHhwB_MmcURfHt1Rso-19" value="商品番号" style="rounded=0;whiteSpace=wrap;html=1;" vertex="1" parent="9-JHhwB_MmcURfHt1Rso-16">
          <mxGeometry y="30" width="120" height="90" as="geometry" />
        </mxCell>
        <mxCell id="9-JHhwB_MmcURfHt1Rso-20" value="商品名称&lt;div&gt;商品単価&lt;/div&gt;" style="rounded=0;whiteSpace=wrap;html=1;" vertex="1" parent="9-JHhwB_MmcURfHt1Rso-16">
          <mxGeometry x="120" y="30" width="120" height="90" as="geometry" />
        </mxCell>
        <mxCell id="9-JHhwB_MmcURfHt1Rso-21" value="" style="group" vertex="1" connectable="0" parent="1">
          <mxGeometry x="480" y="320" width="240" height="120" as="geometry" />
        </mxCell>
        <mxCell id="9-JHhwB_MmcURfHt1Rso-22" value="" style="rounded=0;whiteSpace=wrap;html=1;" vertex="1" parent="9-JHhwB_MmcURfHt1Rso-21">
          <mxGeometry width="240" height="120" as="geometry" />
        </mxCell>
        <mxCell id="9-JHhwB_MmcURfHt1Rso-23" value="顧客(R)" style="rounded=0;whiteSpace=wrap;html=1;" vertex="1" parent="9-JHhwB_MmcURfHt1Rso-21">
          <mxGeometry width="240" height="30" as="geometry" />
        </mxCell>
        <mxCell id="9-JHhwB_MmcURfHt1Rso-24" value="顧客番号" style="rounded=0;whiteSpace=wrap;html=1;" vertex="1" parent="9-JHhwB_MmcURfHt1Rso-21">
          <mxGeometry y="30" width="120" height="90" as="geometry" />
        </mxCell>
        <mxCell id="9-JHhwB_MmcURfHt1Rso-25" value="顧客名称&lt;div&gt;顧客住所&lt;/div&gt;&lt;div&gt;顧客電話番号&lt;/div&gt;" style="rounded=0;whiteSpace=wrap;html=1;" vertex="1" parent="9-JHhwB_MmcURfHt1Rso-21">
          <mxGeometry x="120" y="30" width="120" height="90" as="geometry" />
        </mxCell>
        <mxCell id="9-JHhwB_MmcURfHt1Rso-26" value="" style="group" vertex="1" connectable="0" parent="1">
          <mxGeometry x="480" y="480" width="240" height="120" as="geometry" />
        </mxCell>
        <mxCell id="9-JHhwB_MmcURfHt1Rso-27" value="" style="rounded=0;whiteSpace=wrap;html=1;" vertex="1" parent="9-JHhwB_MmcURfHt1Rso-26">
          <mxGeometry width="240" height="120" as="geometry" />
        </mxCell>
        <mxCell id="9-JHhwB_MmcURfHt1Rso-28" value="請求(E)" style="rounded=0;whiteSpace=wrap;html=1;" vertex="1" parent="9-JHhwB_MmcURfHt1Rso-26">
          <mxGeometry width="240" height="30" as="geometry" />
        </mxCell>
        <mxCell id="9-JHhwB_MmcURfHt1Rso-29" value="請求書番号&lt;div&gt;受注番号(R)&lt;/div&gt;&lt;div&gt;顧客番号(R)&lt;/div&gt;" style="rounded=0;whiteSpace=wrap;html=1;" vertex="1" parent="9-JHhwB_MmcURfHt1Rso-26">
          <mxGeometry y="30" width="120" height="90" as="geometry" />
        </mxCell>
        <mxCell id="9-JHhwB_MmcURfHt1Rso-30" value="請求日&lt;div&gt;請求金額(D)&lt;/div&gt;" style="rounded=0;whiteSpace=wrap;html=1;" vertex="1" parent="9-JHhwB_MmcURfHt1Rso-26">
          <mxGeometry x="120" y="30" width="120" height="90" as="geometry" />
        </mxCell>
        <mxCell id="9-JHhwB_MmcURfHt1Rso-36" style="edgeStyle=orthogonalEdgeStyle;rounded=0;orthogonalLoop=1;jettySize=auto;html=1;entryX=0;entryY=0.5;entryDx=0;entryDy=0;endArrow=ERone;endFill=0;startArrow=ERone;startFill=0;" edge="1" parent="1" source="9-JHhwB_MmcURfHt1Rso-15" target="9-JHhwB_MmcURfHt1Rso-29">
          <mxGeometry relative="1" as="geometry" />
        </mxCell>
        <mxCell id="9-JHhwB_MmcURfHt1Rso-40" style="edgeStyle=orthogonalEdgeStyle;rounded=0;orthogonalLoop=1;jettySize=auto;html=1;exitX=0.5;exitY=1;exitDx=0;exitDy=0;entryX=0.25;entryY=0;entryDx=0;entryDy=0;endArrow=ERmany;endFill=0;startArrow=ERone;startFill=0;" edge="1" parent="1" source="9-JHhwB_MmcURfHt1Rso-24" target="9-JHhwB_MmcURfHt1Rso-28">
          <mxGeometry relative="1" as="geometry" />
        </mxCell>
        <mxCell id="9-JHhwB_MmcURfHt1Rso-37" style="edgeStyle=orthogonalEdgeStyle;rounded=0;orthogonalLoop=1;jettySize=auto;html=1;exitX=1;exitY=1;exitDx=0;exitDy=0;endArrow=ERmany;endFill=0;startArrow=ERone;startFill=0;" edge="1" parent="1" source="9-JHhwB_MmcURfHt1Rso-19">
          <mxGeometry relative="1" as="geometry">
            <mxPoint x="280" y="480" as="targetPoint" />
            <Array as="points">
              <mxPoint x="160" y="400" />
              <mxPoint x="280" y="400" />
            </Array>
          </mxGeometry>
        </mxCell>
        <mxCell id="9-JHhwB_MmcURfHt1Rso-41" style="edgeStyle=orthogonalEdgeStyle;rounded=0;orthogonalLoop=1;jettySize=auto;html=1;exitX=0;exitY=0.75;exitDx=0;exitDy=0;endArrow=ERmany;endFill=0;startArrow=ERone;startFill=0;" edge="1" parent="1" source="9-JHhwB_MmcURfHt1Rso-24" target="9-JHhwB_MmcURfHt1Rso-13">
          <mxGeometry relative="1" as="geometry">
            <Array as="points">
              <mxPoint x="340" y="418" />
            </Array>
          </mxGeometry>
        </mxCell>
      </root>
    </mxGraphModel>
  </diagram>
</mxfile>
